<?xml version="1.0" standalone="no"?>
<!DOCTYPE svg PUBLIC "-//W3C//DTD SVG 20010904//EN"
 "http://www.w3.org/TR/2001/REC-SVG-20010904/DTD/svg10.dtd">
<svg version="1.0" xmlns="http://www.w3.org/2000/svg"
 width="240.000000pt" height="240.000000pt" viewBox="0 0 240.000000 240.000000"
 preserveAspectRatio="xMidYMid meet">
<metadata>
Created by potrace 1.11, written by Peter Selinger 2001-2013
</metadata>
<g transform="translate(0.000000,240.000000) scale(0.100000,-0.100000)"
fill="#000000" stroke="none">
<path d="M1207 2364 c-1 -2 -31 -5 -67 -8 -85 -7 -107 -12 -194 -40 -148 -49
-272 -124 -388 -237 -64 -62 -94 -81 -245 -156 l-173 -86 17 -31 c29 -57 33
-66 33 -79 0 -8 -29 -42 -65 -75 -36 -34 -65 -65 -65 -69 0 -3 46 -53 103
-110 56 -57 106 -116 110 -131 15 -51 47 -177 51 -202 3 -14 14 -60 26 -102
11 -43 23 -85 25 -95 2 -10 11 -47 20 -83 9 -36 18 -74 20 -85 35 -147 184
-727 188 -732 7 -6 1275 -8 1282 -2 2 3 6 18 9 34 2 17 5 30 6 30 1 0 3 7 5
15 2 8 31 125 64 260 34 135 63 252 65 260 2 8 6 22 9 30 4 8 8 29 11 45 2 17
5 30 6 30 1 0 3 7 5 15 2 8 35 143 75 300 39 157 73 305 74 330 2 32 22 82 65
168 34 68 60 126 57 130 -3 5 -27 19 -55 32 -55 25 -58 32 -36 70 8 14 14 32
14 40 0 9 -43 36 -114 70 -63 30 -115 57 -115 60 0 3 -12 19 -26 35 -14 17
-33 39 -43 50 -9 11 -47 47 -86 81 -175 152 -367 224 -633 238 -18 1 -34 1
-35 0z"/>
</g>
</svg>
